<svg width="24" height="24" viewBox="0 0 24 24" fill="none" xmlns="http://www.w3.org/2000/svg">
<path fill-rule="evenodd" clip-rule="evenodd" d="M16.2929 2.29319C17.788 0.798101 20.2121 0.798103 21.7072 2.2932C23.2023 3.78829 23.2023 6.21232 21.7072 7.70741L10.3906 19.024C10.1572 19.2575 9.98059 19.4342 9.78113 19.5889C9.60481 19.7258 9.41735 19.8476 9.2207 19.9532C8.99825 20.0726 8.76513 20.1622 8.45696 20.2806L8.33177 20.3287C8.30046 20.3409 8.26937 20.3528 8.23883 20.3646L2.85901 22.4337C2.49016 22.5756 2.07236 22.4869 1.79292 22.2075C1.60189 22.0164 1.50002 21.7608 1.5 21.5002C1.49998 21.3797 1.52179 21.258 1.56668 21.1413L3.7197 15.5435C3.83815 15.2352 3.92775 15.0021 4.04718 14.7796C4.15273 14.583 4.27456 14.3955 4.41139 14.2192C4.56618 14.0197 4.74283 13.8432 4.97635 13.6098L16.2929 2.29319ZM5.38099 16.7955L4.24108 19.7593L7.20481 18.6194L5.38099 16.7955Z" fill="white"/>
<path d="M13 20.0005H21C21.5523 20.0005 22 20.4482 22 21.0005C22 21.5528 21.5523 22.0005 21 22.0005H13C12.4477 22.0005 12 21.5528 12 21.0005C12 20.4482 12.4477 20.0005 13 20.0005Z" fill="white"/>
</svg>
