<svg width="20" height="20" viewBox="0 0 20 20" fill="none" xmlns="http://www.w3.org/2000/svg">
<path d="M18.75 17.5H10V18.75H18.75V17.5Z" fill="white"/>
<path d="M18.75 14.375H10V15.625H18.75V14.375Z" fill="white"/>
<path d="M6.77863 18.75H8.125L5.4 12.5H3.975L1.25 18.75H2.59638L3.09637 17.5H6.27863L6.77863 18.75ZM3.59631 16.25L4.6875 13.5217L5.77869 16.25H3.59631Z" fill="white"/>
<path d="M18.75 9.375H1.25V10.625H18.75V9.375Z" fill="white"/>
<path d="M18.75 4.375H10V5.625H18.75V4.375Z" fill="white"/>
<path d="M18.75 1.25H10V2.5H18.75V1.25Z" fill="white"/>
<path d="M6.77863 7.5H8.125L5.4 1.25H3.975L1.25 7.5H2.59638L3.09637 6.25H6.27863L6.77863 7.5ZM3.59631 5L4.6875 2.27169L5.77869 5H3.59631Z" fill="white"/>
</svg>
