<svg width="114" height="100" viewBox="0 0 114 100" fill="none" xmlns="http://www.w3.org/2000/svg">
<path fill-rule="evenodd" clip-rule="evenodd" d="M24.7194 0H114V100H0L25.0102 56.686L8.72449 27.907L24.7194 0ZM33.1531 14.2442H49.4388L33.1531 42.4419L25.0102 28.1977L33.1531 14.2442ZM25.0102 85.7558H41.8776L33.1531 70.9302L25.0102 85.7558ZM91.3163 85.7558H58.4541L41.5867 56.686L58.1633 28.1977L91.3163 85.7558ZM66.5969 14.2442H99.75V71.8023L66.5969 14.2442Z" fill="url(#paint0_linear_1370_16960)"/>
<path d="M113.5 0.5V99.5H0.865234L25.4434 56.9365L25.5859 56.6885L25.4453 56.4395L9.29883 27.9082L25.0098 0.5H113.5ZM32.7148 70.6895L24.5723 85.5146L24.165 86.2559H42.752L42.3086 85.502L33.584 70.6768L33.1377 69.9189L32.7148 70.6895ZM57.7314 27.9463L41.1543 56.4346L41.0088 56.6855L41.1543 56.9365L58.0215 86.0068L58.166 86.2559H92.1816L91.75 85.5059L58.5967 27.9482L58.165 27.2002L57.7314 27.9463ZM66.1641 14.4941L99.3164 72.0518L100.25 73.6719V13.7441H65.7324L66.1641 14.4941ZM32.7217 13.9922L24.5781 27.9453L24.4326 28.1953L24.5762 28.4463L32.7188 42.6904L33.1504 43.4453L33.5859 42.6924L49.8721 14.4941L50.3047 13.7441H32.8662L32.7217 13.9922Z" stroke="white" stroke-opacity="0.2"/>
<defs>
<linearGradient id="paint0_linear_1370_16960" x1="57" y1="0" x2="57" y2="100" gradientUnits="userSpaceOnUse">
<stop stop-color="#F8F8F8"/>
<stop offset="1" stop-color="#7A797D"/>
</linearGradient>
</defs>
</svg>
