<svg width="24" height="24" viewBox="0 0 24 24" fill="none" xmlns="http://www.w3.org/2000/svg">
<g id="button=Settings">
<g id="settings">
<path id="Vector" d="M13.7387 1.52957C14.0907 1.52283 14.4342 1.64085 14.7085 1.8616C14.9826 2.08235 15.1702 2.39236 15.2387 2.73758L15.6215 4.62723C15.9611 4.79268 16.2894 4.98069 16.604 5.18973L18.4262 4.57449C18.5811 4.52358 18.7437 4.49903 18.9067 4.50027C19.1697 4.50056 19.428 4.56982 19.6557 4.70145C19.8834 4.83308 20.073 5.02249 20.2046 5.25027L21.9741 8.25027C22.1597 8.55136 22.2332 8.90826 22.1811 9.25809C22.129 9.60806 21.9544 9.92842 21.6889 10.1624L20.2495 11.4221V12.5696L21.6665 13.8675C21.928 14.0968 22.1015 14.4099 22.1577 14.7532C22.2138 15.0966 22.1491 15.4495 21.9741 15.7503L20.2641 18.7503C20.1326 18.978 19.943 19.1675 19.7153 19.2991C19.4877 19.4305 19.2291 19.5 18.9663 19.5003C18.8034 19.5015 18.6415 19.4759 18.4868 19.4251L16.6714 18.8098C16.3543 19.0189 16.0239 19.207 15.6821 19.3723L15.2993 21.262C15.2307 21.6073 15.0423 21.9182 14.768 22.1389C14.4939 22.3595 14.151 22.4767 13.7993 22.47H10.2592C9.90726 22.4767 9.56374 22.3597 9.28952 22.1389C9.01531 21.9182 8.82782 21.6073 8.75924 21.262L8.37643 19.3723C8.03688 19.2069 7.7086 19.0189 7.39401 18.8098L5.57174 19.4251C5.41688 19.476 5.25429 19.5015 5.09127 19.5003C4.82836 19.4999 4.56988 19.4307 4.34225 19.2991C4.11463 19.1675 3.92591 18.9779 3.7944 18.7503L2.02389 15.7503C1.84084 15.4466 1.77136 15.0876 1.8276 14.7376C1.88389 14.3875 2.06246 14.0682 2.33151 13.8372L3.74948 12.5774V11.43L2.33151 10.1321C2.06999 9.90273 1.89638 9.58969 1.8403 9.24637C1.78422 8.90306 1.84897 8.55094 2.02389 8.25027L3.7944 5.25027C3.92588 5.02255 4.11462 4.83308 4.34225 4.70145C4.56989 4.56986 4.82835 4.5006 5.09127 4.50027C5.25265 4.4893 5.41522 4.50441 5.57174 4.5452L7.3569 5.18973C7.67395 4.98073 8.00432 4.79259 8.34616 4.62723L8.72897 2.73758C8.79755 2.39228 8.98599 2.08236 9.26022 1.8616C9.53439 1.64093 9.87709 1.52286 10.229 1.52957H13.7387ZM10.229 3.00027L9.69674 5.69266C8.9547 5.96134 8.26671 6.36032 7.66452 6.87039L5.09127 6.00027L3.32174 9.00027L5.36178 10.8528C5.22318 11.6289 5.2232 12.4234 5.36178 13.1995L3.32174 15.0003L5.09127 18.0003L7.67135 17.1604C8.27562 17.6635 8.96059 18.0609 9.69674 18.3372L10.229 21.0003H13.769L14.3012 18.3079C15.0433 18.0392 15.7322 17.6402 16.3344 17.1302L18.9067 18.0003L20.6762 15.0003L18.6362 13.1477C18.7749 12.3714 18.7749 11.5764 18.6362 10.8001L20.6762 9.00027L18.9067 6.00027L16.3266 6.84012C15.7223 6.33697 15.0374 5.9387 14.3012 5.66238L13.769 3.00027H10.229ZM11.1215 7.58621C11.9943 7.41268 12.899 7.5025 13.7212 7.84305C14.5434 8.18365 15.2462 8.76029 15.7407 9.50027C16.2351 10.2403 16.4995 11.1103 16.4995 12.0003C16.5055 12.5927 16.3923 13.1802 16.1684 13.7288C15.9444 14.2774 15.6138 14.7765 15.1948 15.1956C14.7757 15.6147 14.2767 15.9462 13.728 16.1702C13.1795 16.3941 12.5918 16.5062 11.9995 16.5003C11.1096 16.5003 10.2394 16.2359 9.49948 15.7415C8.75946 15.247 8.18187 14.5442 7.84127 13.722C7.5008 12.8998 7.41186 11.9951 7.58541 11.1223C7.75905 10.2494 8.18752 9.44699 8.81686 8.81766C9.44619 8.18835 10.2487 7.75984 11.1215 7.58621ZM11.851 9.00027C11.5048 9.0097 11.1625 9.08019 10.8403 9.20926C10.4722 9.35674 10.1373 9.57729 9.8569 9.8577C9.57646 10.1381 9.35596 10.4729 9.20846 10.8411C9.07937 11.1633 9.00891 11.5056 8.99948 11.8518V12.1487C9.00896 12.4946 9.07954 12.8365 9.20846 13.1585C9.35592 13.5265 9.57655 13.8615 9.8569 14.1419C10.1373 14.4223 10.4721 14.6428 10.8403 14.7903C11.2084 14.9378 11.603 15.0095 11.9995 15.0003C12.3958 15.0095 12.7897 14.9377 13.1577 14.7903C13.5258 14.6428 13.8606 14.4223 14.1411 14.1419C14.4215 13.8615 14.642 13.5266 14.7895 13.1585C14.9369 12.7905 15.0087 12.3966 14.9995 12.0003C15.0087 11.6038 14.937 11.2092 14.7895 10.8411C14.642 10.473 14.4215 10.1381 14.1411 9.8577C13.8607 9.57735 13.5258 9.35672 13.1577 9.20926C12.8357 9.08033 12.4938 9.00977 12.1479 9.00027H11.851Z" fill="#6C47FF"/>
</g>
</g>
</svg>
