<svg width="20" height="20" viewBox="0 0 20 20" fill="none" xmlns="http://www.w3.org/2000/svg">
<rect width="20" height="20" fill="white" fill-opacity="0.01"/>
<path d="M6.25 18.75H5V16.875H2.5V18.75H1.25V16.875C1.25038 16.5436 1.3822 16.2259 1.61654 15.9915C1.85087 15.7572 2.1686 15.6254 2.5 15.625H5C5.3314 15.6254 5.64912 15.7572 5.88346 15.9915C6.1178 16.2259 6.24962 16.5436 6.25 16.875V18.75Z" fill="white"/>
<path d="M18.75 18.75H17.5V16.875H15V18.75H13.75V16.875C13.7504 16.5436 13.8822 16.2259 14.1165 15.9915C14.3509 15.7572 14.6686 15.6254 15 15.625H17.5C17.8314 15.6254 18.1491 15.7572 18.3835 15.9915C18.6178 16.2259 18.7496 16.5436 18.75 16.875V18.75Z" fill="white"/>
<path d="M12.5 18.75H11.25V16.875H8.75V18.75H7.5V16.875C7.50038 16.5436 7.6322 16.2259 7.86654 15.9915C8.10088 15.7572 8.4186 15.6254 8.75 15.625H11.25C11.5814 15.6254 11.8991 15.7572 12.1335 15.9915C12.3678 16.2259 12.4996 16.5436 12.5 16.875V18.75Z" fill="white"/>
<path d="M10 15C10.6904 15 11.25 14.4404 11.25 13.75C11.25 13.0596 10.6904 12.5 10 12.5C9.30964 12.5 8.75 13.0596 8.75 13.75C8.75 14.4404 9.30964 15 10 15Z" fill="white"/>
<path d="M3.75 15C4.44036 15 5 14.4404 5 13.75C5 13.0596 4.44036 12.5 3.75 12.5C3.05964 12.5 2.5 13.0596 2.5 13.75C2.5 14.4404 3.05964 15 3.75 15Z" fill="white"/>
<path d="M16.25 15C16.9404 15 17.5 14.4404 17.5 13.75C17.5 13.0596 16.9404 12.5 16.25 12.5C15.5596 12.5 15 13.0596 15 13.75C15 14.4404 15.5596 15 16.25 15Z" fill="white"/>
<path d="M13.125 12.5C13.8154 12.5 14.375 11.9404 14.375 11.25C14.375 10.5596 13.8154 10 13.125 10C12.4346 10 11.875 10.5596 11.875 11.25C11.875 11.9404 12.4346 12.5 13.125 12.5Z" fill="white"/>
<path d="M6.875 12.5C7.56536 12.5 8.125 11.9404 8.125 11.25C8.125 10.5596 7.56536 10 6.875 10C6.18464 10 5.625 10.5596 5.625 11.25C5.625 11.9404 6.18464 12.5 6.875 12.5Z" fill="white"/>
<path d="M16.25 8.75H3.75C3.4186 8.74962 3.10087 8.6178 2.86654 8.38346C2.6322 8.14912 2.50038 7.8314 2.5 7.5V2.5C2.50038 2.1686 2.6322 1.85087 2.86654 1.61654C3.10087 1.3822 3.4186 1.25038 3.75 1.25H16.25C16.5814 1.25038 16.8991 1.3822 17.1335 1.61654C17.3678 1.85087 17.4996 2.1686 17.5 2.5V7.5C17.4996 7.8314 17.3678 8.14912 17.1335 8.38346C16.8991 8.6178 16.5814 8.74962 16.25 8.75ZM3.75 2.5V7.5H16.25V2.5H3.75Z" fill="white"/>
</svg>
