<svg width="32" height="32" viewBox="0 0 32 32" fill="none" xmlns="http://www.w3.org/2000/svg">
<path d="M22.6667 12C22.6667 17.16 18.1867 21.3334 12.6667 21.3334L11.4267 22.8267L10.6934 23.7067C10.0667 24.4534 8.86669 24.2934 8.45335 23.4L6.66669 19.4667C4.24002 17.76 2.66669 15.0534 2.66669 12C2.66669 6.84002 7.14669 2.66669 12.6667 2.66669C18.1867 2.66669 22.6667 6.84002 22.6667 12Z" stroke="white" stroke-width="2" stroke-linecap="round" stroke-linejoin="round"/>
<path d="M29.3334 17.1467C29.3334 20.2 27.7601 22.9067 25.3334 24.6134L23.5467 28.5467C23.1334 29.44 21.9334 29.6 21.3067 28.8534L19.3334 26.48C16.1067 26.48 13.2267 24.9467 11.4267 22.6267L12.6667 21.1467C18.1867 21.1467 22.6667 17.64 22.6667 11.8134C22.6667 10.4267 22.3734 9.10669 21.8401 7.92002C26.1734 9.08002 29.3334 12.76 29.3334 17.1467Z" stroke="white" stroke-width="2" stroke-linecap="round" stroke-linejoin="round"/>
</svg>
