<svg width="32" height="32" viewBox="0 0 32 32" fill="none" xmlns="http://www.w3.org/2000/svg">
<path d="M28 15.3334C28.0045 16.8932 27.5934 18.4292 26.8 19.7867C25.8592 21.6158 24.4131 23.1323 22.6232 24.1724C20.8334 25.2126 18.7709 25.7326 16.6667 25.6667C15.1069 25.6712 13.5708 25.2601 12.2133 24.4667L4 28L7.53335 19.7867C6.73993 18.4292 6.32884 16.8932 6.33335 15.3334C6.26746 13.2292 6.78747 11.1666 7.82762 9.37679C8.86776 7.58697 10.3843 6.14089 12.2133 5.20002C13.5708 4.40661 15.1069 3.99551 16.6667 4.00002H17.3334C20.1124 4.15336 22.7373 5.32639 24.7055 7.29455C26.6736 9.26272 27.8467 11.8876 28 14.6667V15.3334Z" stroke="white" stroke-width="2" stroke-linecap="round" stroke-linejoin="round"/>
</svg>
