<svg width="20" height="20" viewBox="0 0 20 20" fill="none" xmlns="http://www.w3.org/2000/svg">
<rect width="20" height="20" fill="white" fill-opacity="0.01"/>
<path d="M17.3187 2.68202C17.2344 2.59807 17.1278 2.53994 17.0116 2.51448C16.8953 2.48901 16.7742 2.49727 16.6625 2.53827L2.9125 7.53827C2.79392 7.58325 2.69183 7.66324 2.61978 7.76762C2.54774 7.87199 2.50916 7.99582 2.50916 8.12265C2.50916 8.24947 2.54774 8.3733 2.61978 8.47767C2.69183 8.58205 2.79392 8.66204 2.9125 8.70702L8.9125 11.107L11.3125 17.107C11.3576 17.2204 11.4349 17.3181 11.5348 17.3881C11.6348 17.458 11.753 17.4972 11.875 17.5008C12.0013 17.4982 12.1239 17.4574 12.2265 17.3837C12.3292 17.3101 12.4071 17.2071 12.45 17.0883L17.45 3.33827C17.4926 3.22769 17.5029 3.10729 17.4796 2.9911C17.4564 2.87491 17.4006 2.76772 17.3187 2.68202ZM11.875 15.1258L10.1313 10.7508L13.125 7.75702L12.2438 6.87577L9.225 9.89452L4.875 8.12577L15.8313 4.16952L11.875 15.1258Z" fill="white"/>
</svg>
