<svg width="22" height="22" viewBox="0 0 22 22" fill="none" xmlns="http://www.w3.org/2000/svg">
<rect width="22" height="22" fill="white" fill-opacity="0.01"/>
<path d="M17.875 2.75H15.125V1.375H13.75V2.75H8.25V1.375H6.875V2.75H4.125C3.36875 2.75 2.75 3.36875 2.75 4.125V17.875C2.75 18.6313 3.36875 19.25 4.125 19.25H17.875C18.6313 19.25 19.25 18.6313 19.25 17.875V4.125C19.25 3.36875 18.6313 2.75 17.875 2.75ZM17.875 17.875H4.125V8.25H17.875V17.875ZM17.875 6.875H4.125V4.125H6.875V5.5H8.25V4.125H13.75V5.5H15.125V4.125H17.875V6.875Z" fill="white"/>
</svg>
