<svg width="20" height="20" viewBox="0 0 20 20" fill="none" xmlns="http://www.w3.org/2000/svg">
<rect width="20" height="20" fill="white" fill-opacity="0.01"/>
<path d="M17.5 1.25H14.375V2.5H17.5V17.5H14.375V18.75H17.5C17.8312 18.749 18.1486 18.617 18.3828 18.3828C18.617 18.1486 18.749 17.8312 18.75 17.5V2.5C18.749 2.16878 18.617 1.8514 18.3828 1.61719C18.1486 1.38298 17.8312 1.25097 17.5 1.25Z" fill="white"/>
<path d="M8.75 10.625H5C4.91661 10.62 4.8331 10.6327 4.755 10.6623C4.67689 10.6919 4.60595 10.7378 4.54688 10.7969C4.48781 10.856 4.44194 10.9269 4.41231 11.005C4.38269 11.0831 4.36997 11.1666 4.375 11.25V15C4.36997 15.0834 4.38269 15.1669 4.41231 15.245C4.44194 15.3231 4.48781 15.394 4.54688 15.4531C4.60595 15.5122 4.67689 15.5581 4.755 15.5877C4.8331 15.6173 4.91661 15.63 5 15.625H8.75C8.83339 15.63 8.91689 15.6173 8.995 15.5877C9.07311 15.5581 9.14405 15.5122 9.20312 15.4531C9.26219 15.394 9.30806 15.3231 9.33768 15.245C9.36731 15.1669 9.38003 15.0834 9.375 15V11.25C9.38003 11.1666 9.36731 11.0831 9.33768 11.005C9.30806 10.9269 9.26219 10.856 9.20312 10.7969C9.14405 10.7378 9.07311 10.6919 8.995 10.6623C8.91689 10.6327 8.83339 10.62 8.75 10.625ZM8.125 14.375H5.625V11.875H8.125V14.375Z" fill="white"/>
<path d="M15.625 15V11.25C15.63 11.1666 15.6173 11.0831 15.5877 11.005C15.5581 10.9269 15.5122 10.856 15.4531 10.7969C15.394 10.7378 15.3231 10.6919 15.245 10.6623C15.1669 10.6327 15.0834 10.62 15 10.625H11.25C11.1666 10.62 11.0831 10.6327 11.005 10.6623C10.9269 10.6919 10.856 10.7378 10.7969 10.7969C10.7378 10.856 10.6919 10.9269 10.6623 11.005C10.6327 11.0831 10.62 11.1666 10.625 11.25V15C10.62 15.0834 10.6327 15.1669 10.6623 15.245C10.6919 15.3231 10.7378 15.394 10.7969 15.4531C10.856 15.5122 10.9269 15.5581 11.005 15.5877C11.0831 15.6173 11.1666 15.63 11.25 15.625H15C15.1657 15.6247 15.3244 15.5587 15.4416 15.4416C15.5587 15.3244 15.6247 15.1657 15.625 15ZM14.375 14.375H11.875V11.875H14.375V14.375Z" fill="white"/>
<path d="M8.75 4.375H5C4.91661 4.36997 4.8331 4.38269 4.755 4.41231C4.67689 4.44194 4.60595 4.48781 4.54688 4.54688C4.48781 4.60595 4.44194 4.67689 4.41231 4.755C4.38269 4.8331 4.36997 4.91661 4.375 5V8.75C4.36997 8.83339 4.38269 8.91689 4.41231 8.995C4.44194 9.07311 4.48781 9.14405 4.54688 9.20312C4.60595 9.26219 4.67689 9.30806 4.755 9.33768C4.8331 9.36731 4.91661 9.38003 5 9.375H8.75C8.83339 9.38003 8.91689 9.36731 8.995 9.33768C9.07311 9.30806 9.14405 9.26219 9.20312 9.20312C9.26219 9.14405 9.30806 9.07311 9.33768 8.995C9.36731 8.91689 9.38003 8.83339 9.375 8.75V5C9.38003 4.91661 9.36731 4.8331 9.33768 4.755C9.30806 4.67689 9.26219 4.60595 9.20312 4.54688C9.14405 4.48781 9.07311 4.44194 8.995 4.41231C8.91689 4.38269 8.83339 4.36997 8.75 4.375ZM8.125 8.125H5.625V5.625H8.125V8.125Z" fill="white"/>
<path d="M11.25 9.375H15C15.0834 9.38003 15.1669 9.36731 15.245 9.33768C15.3231 9.30806 15.394 9.26219 15.4531 9.20312C15.5122 9.14405 15.5581 9.07311 15.5877 8.995C15.6173 8.91689 15.63 8.83339 15.625 8.75V5C15.63 4.91661 15.6173 4.8331 15.5877 4.755C15.5581 4.67689 15.5122 4.60595 15.4531 4.54688C15.394 4.48781 15.3231 4.44194 15.245 4.41231C15.1669 4.38269 15.0834 4.36997 15 4.375H11.25C11.1666 4.36997 11.0831 4.38269 11.005 4.41231C10.9269 4.44194 10.856 4.48781 10.7969 4.54688C10.7378 4.60595 10.6919 4.67689 10.6623 4.755C10.6327 4.8331 10.62 4.91661 10.625 5V8.75C10.6253 8.91565 10.6913 9.07442 10.8084 9.19156C10.9256 9.30869 11.0843 9.37465 11.25 9.375ZM11.875 5.625H14.375V8.125H11.875V5.625Z" fill="white"/>
<path d="M2.5 2.5H5.625V1.25H2.5C2.16878 1.25097 1.8514 1.38298 1.61719 1.61719C1.38298 1.8514 1.25097 2.16878 1.25 2.5V17.5C1.25097 17.8312 1.38298 18.1486 1.61719 18.3828C1.8514 18.617 2.16878 18.749 2.5 18.75H5.625V17.5H2.5V2.5Z" fill="white"/>
</svg>
