<svg width="20" height="20" viewBox="0 0 20 20" fill="none" xmlns="http://www.w3.org/2000/svg">
<rect width="20" height="20" fill="white" fill-opacity="0.01"/>
<path d="M18.2813 4.22405C17.9329 3.87445 17.5189 3.59706 17.0631 3.40779C16.6073 3.21852 16.1186 3.12109 15.625 3.12109C15.1315 3.12109 14.6428 3.21852 14.187 3.40779C13.7312 3.59706 13.3172 3.87445 12.9688 4.22405L13.8563 5.11155C14.089 4.87886 14.3652 4.69429 14.6692 4.56836C14.9733 4.44243 15.2991 4.37762 15.6282 4.37762C15.9572 4.37762 16.2831 4.44243 16.5871 4.56836C16.8911 4.69429 17.1674 4.87886 17.4 5.11155C17.6327 5.34424 17.8173 5.62048 17.9432 5.92449C18.0692 6.22851 18.134 6.55436 18.134 6.88343C18.134 7.21249 18.0692 7.53834 17.9432 7.84236C17.8173 8.14638 17.6327 8.42262 17.4 8.6553L12.4 13.6553C11.9309 14.1252 11.2944 14.3896 10.6304 14.3902C9.96638 14.3907 9.32935 14.1275 8.85942 13.6584C8.38949 13.1893 8.12515 12.5528 8.12457 11.8888C8.12398 11.2248 8.38719 10.5877 8.85629 10.1178L9.73754 9.2303L8.85629 8.3428L7.96879 9.2303C7.61919 9.57869 7.3418 9.99266 7.15253 10.4485C6.96326 10.9043 6.86583 11.393 6.86583 11.8866C6.86583 12.3801 6.96326 12.8688 7.15253 13.3246C7.3418 13.7804 7.61919 14.1944 7.96879 14.5428C8.67597 15.2409 9.63134 15.6298 10.625 15.6241C11.1205 15.6261 11.6114 15.5299 12.0695 15.3411C12.5276 15.1523 12.9437 14.8746 13.2938 14.5241L18.2938 9.52405C18.9944 8.81927 19.3866 7.86522 19.3842 6.87146C19.3819 5.87771 18.9852 4.92552 18.2813 4.22405Z" fill="white"/>
<path d="M2.61879 15.5115C2.38541 15.2793 2.20022 15.0031 2.07386 14.6991C1.94749 14.395 1.88244 14.069 1.88244 13.7397C1.88244 13.4104 1.94749 13.0844 2.07386 12.7803C2.20022 12.4762 2.38541 12.2001 2.61879 11.9678L7.61879 6.9678C7.85109 6.73442 8.1272 6.54923 8.43127 6.42287C8.73534 6.2965 9.06138 6.23145 9.39067 6.23145C9.71995 6.23145 10.046 6.2965 10.3501 6.42287C10.6541 6.54923 10.9302 6.73442 11.1625 6.9678C11.3944 7.20193 11.577 7.48022 11.6994 7.78619C11.8218 8.09216 11.8815 8.41958 11.875 8.74905C11.8769 9.07955 11.8133 9.40715 11.6878 9.7129C11.5623 10.0186 11.3774 10.2965 11.1438 10.5303L9.81879 11.8741L10.7063 12.7616L12.0313 11.4366C12.7366 10.7312 13.1328 9.77463 13.1328 8.77718C13.1328 7.77972 12.7366 6.82311 12.0313 6.1178C11.326 5.41249 10.3694 5.01625 9.37192 5.01625C8.37446 5.01625 7.41785 5.41249 6.71254 6.1178L1.71254 11.1178C1.362 11.4663 1.08382 11.8807 0.893994 12.3371C0.704168 12.7935 0.606445 13.2829 0.606445 13.7772C0.606445 14.2715 0.704168 14.7609 0.893994 15.2173C1.08382 15.6737 1.362 16.088 1.71254 16.4365C2.42431 17.1293 3.38185 17.5115 4.37504 17.4991C5.37698 17.5 6.33862 17.1046 7.05004 16.3991L6.16254 15.5115C5.93025 15.7449 5.65413 15.9301 5.35006 16.0565C5.04599 16.1829 4.71995 16.2479 4.39067 16.2479C4.06138 16.2479 3.73534 16.1829 3.43127 16.0565C3.1272 15.9301 2.85109 15.7449 2.61879 15.5115Z" fill="white"/>
</svg>
