<svg width="20" height="20" viewBox="0 0 20 20" fill="none" xmlns="http://www.w3.org/2000/svg">
<rect width="20" height="20" fill="white" fill-opacity="0.01"/>
<path d="M10 1.25C8.26942 1.25 6.57769 1.76318 5.13876 2.72464C3.69983 3.6861 2.57832 5.05267 1.91606 6.65152C1.25379 8.25037 1.08051 10.0097 1.41813 11.707C1.75575 13.4044 2.58911 14.9635 3.81282 16.1872C5.03653 17.4109 6.59563 18.2442 8.29296 18.5819C9.9903 18.9195 11.7496 18.7462 13.3485 18.0839C14.9473 17.4217 16.3139 16.3002 17.2754 14.8612C18.2368 13.4223 18.75 11.7306 18.75 10C18.75 7.67936 17.8281 5.45376 16.1872 3.81282C14.5462 2.17187 12.3206 1.25 10 1.25ZM10 17.5C8.51664 17.5 7.0666 17.0601 5.83323 16.236C4.59986 15.4119 3.63856 14.2406 3.07091 12.8701C2.50325 11.4997 2.35473 9.99168 2.64411 8.53682C2.9335 7.08197 3.64781 5.74559 4.6967 4.6967C5.7456 3.64781 7.08197 2.9335 8.53683 2.64411C9.99168 2.35472 11.4997 2.50325 12.8701 3.0709C14.2406 3.63856 15.4119 4.59985 16.236 5.83322C17.0601 7.06659 17.5 8.51664 17.5 10C17.5 11.9891 16.7098 13.8968 15.3033 15.3033C13.8968 16.7098 11.9891 17.5 10 17.5Z" fill="#FF4759"/>
<path d="M10 6.25C9.25832 6.25 8.5333 6.46993 7.91662 6.88199C7.29993 7.29404 6.81928 7.87971 6.53546 8.56494C6.25163 9.25016 6.17737 10.0042 6.32206 10.7316C6.46675 11.459 6.82391 12.1272 7.34835 12.6517C7.8728 13.1761 8.54099 13.5333 9.26842 13.6779C9.99584 13.8226 10.7498 13.7484 11.4351 13.4645C12.1203 13.1807 12.706 12.7001 13.118 12.0834C13.5301 11.4667 13.75 10.7417 13.75 10C13.75 9.00544 13.3549 8.05161 12.6517 7.34835C11.9484 6.64509 10.9946 6.25 10 6.25Z" fill="#FF4759"/>
</svg>
