<svg width="22" height="22" viewBox="0 0 22 22" fill="none" xmlns="http://www.w3.org/2000/svg">
<rect width="22" height="22" fill="white" fill-opacity="0.01"/>
<path d="M4.125 20.625H12.375C12.7395 20.6246 13.089 20.4796 13.3468 20.2218C13.6046 19.964 13.7496 19.6145 13.75 19.25V17.1875H12.375V19.25H4.125V2.75H12.375V4.8125H13.75V2.75C13.7496 2.38546 13.6046 2.03596 13.3468 1.77819C13.089 1.52042 12.7395 1.37542 12.375 1.375H4.125C3.76046 1.37542 3.41096 1.52042 3.15319 1.77819C2.89542 2.03596 2.75042 2.38546 2.75 2.75V19.25C2.75042 19.6145 2.89542 19.964 3.15319 20.2218C3.41096 20.4796 3.76046 20.6246 4.125 20.625Z" fill="white"/>
<path d="M14.1529 14.1529L16.6183 11.6875H6.875V10.3125H16.6183L14.1529 7.84712L15.125 6.875L19.25 11L15.125 15.125L14.1529 14.1529Z" fill="white"/>
</svg>
