<svg width="22" height="22" viewBox="0 0 22 22" fill="none" xmlns="http://www.w3.org/2000/svg">
<rect width="22" height="22" fill="white" fill-opacity="0.01"/>
<path d="M11.421 1.52195C11.2989 1.42672 11.1486 1.375 10.9938 1.375C10.839 1.375 10.6886 1.42672 10.5666 1.52195L0.6875 9.2258L1.54186 10.3063L2.75 9.36433V17.875C2.75074 18.2394 2.89585 18.5887 3.15355 18.8464C3.41125 19.1041 3.76056 19.2492 4.125 19.25H17.875C18.2395 19.2493 18.5888 19.1042 18.8465 18.8465C19.1042 18.5888 19.2493 18.2394 19.25 17.875V9.37059L20.4581 10.3125L21.3125 9.23185L11.421 1.52195ZM12.375 17.875H9.625V12.375H12.375V17.875ZM13.75 17.875V12.375C13.7496 12.0104 13.6046 11.6609 13.3468 11.4032C13.089 11.1454 12.7395 11.0004 12.375 11H9.625C9.26044 11.0003 8.91091 11.1453 8.65313 11.4031C8.39535 11.6609 8.25036 12.0104 8.25 12.375V17.875H4.125V8.29224L11 2.93662L17.875 8.29946V17.875H13.75Z" fill="white"/>
</svg>
